<svg xmlns="http://www.w3.org/2000/svg" viewBox="0 0 150 150"><defs><style>.cls-1{fill:#dfa430;}.cls-2{fill:#fff;}</style></defs><g id="Capa_2" data-name="Capa 2"><g id="Capa_1-2" data-name="Capa 1"><path class="cls-1" d="M11.94,0H150a0,0,0,0,1,0,0V150a0,0,0,0,1,0,0H11.94A11.94,11.94,0,0,1,0,138.06V11.94A11.94,11.94,0,0,1,11.94,0Z" transform="translate(150) rotate(90)"/><path class="cls-2" d="M118.91,73.55c0,15.92-6.08,25.65-16.66,25.65-6,0-10.11-3.18-11.24-8.89-3.74,5.8-9.92,8.89-17.79,8.89-13.3,0-22.94-10.11-22.94-24.06s9.64-23.88,22.94-23.88c7.21,0,13.3,2.72,17.14,8V51.64H98.5V85.35c0,5,2.44,6.74,5.34,6.74,5.52,0,8.71-6.74,8.71-18.45,0-21-15.17-35-37.27-35-22.38,0-37.36,15-37.36,36.24,0,21.44,14.79,36.42,37,36.42A40.32,40.32,0,0,0,93,107.16l2.06,6c-5.71,2.9-13.49,4.4-20.13,4.4-26,0-43.82-17.89-43.82-42.7s18-42.42,44.19-42.42C100.94,32.44,118.91,49.3,118.91,73.55ZM90.54,75.14c0-10.39-6.93-16.67-16-16.67-9.36,0-15.92,6.46-15.92,16.67S65.17,91.9,74.53,91.9C83.61,91.9,90.54,85.53,90.54,75.14Z"/></g></g></svg>