<svg xmlns="http://www.w3.org/2000/svg" viewBox="0 0 150 150"><defs><style>.cls-1{fill:#1c266d;}.cls-2{fill:#fff;}</style></defs><g id="Capa_2" data-name="Capa 2"><g id="Capa_1-2" data-name="Capa 1"><path class="cls-1" d="M11.94,0H150a0,0,0,0,1,0,0V150a0,0,0,0,1,0,0H11.94A11.94,11.94,0,0,1,0,138.06V11.94A11.94,11.94,0,0,1,11.94,0Z" transform="translate(150 0) rotate(90)"/><path class="cls-2" d="M38.9,109.46l-1.62-1.4L33,111.2l-.29-.29c1.36-1.44,2.51-3.21,4.13-4.23,1.87-1.17,2.69-3,4.12-4.57L23,90.43c1.42-1.24,2.69-2.45,4.08-3.51a2.55,2.55,0,0,1,1.64-.13c5.72.77,11.45,1.41,17.13,2.43,4.21.75,7.37-.51,10.34-3.49C67.39,74.47,78.73,63.34,90,52.18c2.7-2.66,5.34-5.4,8.28-7.78a22.28,22.28,0,0,1,6.87-4A36.29,36.29,0,0,1,114,39.09a2.35,2.35,0,0,1,2.45,3.48,26,26,0,0,1-4.1,6.85c-4.31,4.76-8.93,9.25-13.45,13.82-3.27,3.3-6.59,6.55-9.93,9.87.22.29.36.54.55.74,1.4,1.51,1.48,2,.09,3.59-2.23,2.61-5.17,4.26-8.17,5.8-.33.18-.78.31-1,.6-2,3.18-5,5.06-8.24,6.53-4.84,2.22-8.9,5.66-13.53,8.18C52.1,102.16,45.48,105.84,38.9,109.46Z"/></g></g></svg>