<svg xmlns="http://www.w3.org/2000/svg" viewBox="0 0 150 150"><defs><style>.cls-1{fill:#1c266d;}.cls-2{fill:#fff;}</style></defs><g id="Capa_2" data-name="Capa 2"><g id="Capa_1-2" data-name="Capa 1"><path class="cls-1" d="M11.94,0H150a0,0,0,0,1,0,0V150a0,0,0,0,1,0,0H11.94A11.94,11.94,0,0,1,0,138.06V11.94A11.94,11.94,0,0,1,11.94,0Z"/><path class="cls-2" d="M44,109.32l-1.61-1.4-4.32,3.14-.28-.29c1.35-1.44,2.5-3.21,4.12-4.23,1.87-1.17,2.69-3,4.13-4.57L28.11,90.29c1.43-1.25,2.7-2.45,4.08-3.51a2.57,2.57,0,0,1,1.65-.13c5.71.77,11.45,1.41,17.12,2.43,4.21.75,7.37-.51,10.34-3.49C72.51,74.33,83.84,63.2,95.15,52c2.7-2.66,5.35-5.4,8.28-7.78a22.4,22.4,0,0,1,6.87-4A36.3,36.3,0,0,1,119.16,39a2.34,2.34,0,0,1,2.44,3.48,25.49,25.49,0,0,1-4.1,6.85c-4.3,4.76-8.92,9.25-13.45,13.82-3.27,3.3-6.59,6.55-9.93,9.86a8.21,8.21,0,0,0,.55.75c1.4,1.51,1.48,2,.09,3.59-2.23,2.6-5.16,4.25-8.16,5.8-.34.18-.78.31-1,.6-2,3.18-5,5.06-8.23,6.53-4.85,2.22-8.9,5.66-13.54,8.18C57.22,102,50.6,105.7,44,109.32Z"/></g></g></svg>