<svg xmlns="http://www.w3.org/2000/svg" viewBox="0 0 150 150"><defs><style>.cls-1{fill:#33bc47;}.cls-2{fill:#fff;fill-rule:evenodd;}</style></defs><g id="Capa_2" data-name="Capa 2"><g id="Capa_1-2" data-name="Capa 1"><path class="cls-1" d="M11.94,0H150a0,0,0,0,1,0,0V150a0,0,0,0,1,0,0H11.94A11.94,11.94,0,0,1,0,138.06V11.94A11.94,11.94,0,0,1,11.94,0Z" transform="translate(150 0) rotate(90)"/><path class="cls-2" d="M117.35,69.77A41.61,41.61,0,0,0,34.21,69c0,.61,0,1.21,0,1.81a41,41,0,0,0,6,21.33l-7.49,22.14,23-7.32a41.65,41.65,0,0,0,61.69-36.15C117.36,70.47,117.36,70.12,117.35,69.77ZM75.77,105.52a34.84,34.84,0,0,1-19.24-5.74l-13.44,4.28,4.36-12.89a34.38,34.38,0,0,1-6.66-20.35A31.42,31.42,0,0,1,41,67.45a35,35,0,0,1,69.66.67c.08.89.11,1.79.11,2.7A34.87,34.87,0,0,1,75.77,105.52Z"/><path class="cls-2" d="M94.83,79.16c-1-.51-6-3-7-3.29s-1.61-.51-2.3.5-2.64,3.29-3.23,4-1.19.76-2.22.25a27.73,27.73,0,0,1-8.2-5,29.94,29.94,0,0,1-5.66-7c-.59-1-.06-1.55.45-2.06s1-1.19,1.53-1.77c.14-.18.26-.33.37-.49A11,11,0,0,0,69.25,63a1.83,1.83,0,0,0-.08-1.77c-.25-.51-2.3-5.49-3.16-7.52s-1.69-1.67-2.29-1.67-1.27-.1-1.95-.1A3.81,3.81,0,0,0,59,53.24a11.33,11.33,0,0,0-3.56,8.45A12.92,12.92,0,0,0,56,65.14a23.17,23.17,0,0,0,3.65,7c.5.66,7.05,11.21,17.4,15.28S87.43,90.12,89.3,90s6-2.44,6.88-4.81.86-4.39.6-4.81S95.85,79.66,94.83,79.16Z"/></g></g></svg>