<svg xmlns="http://www.w3.org/2000/svg" viewBox="0 0 150 150"><defs><style>.cls-1{fill:#33bc47;}.cls-2{fill:#fff;fill-rule:evenodd;}</style></defs><g id="Capa_2" data-name="Capa 2"><g id="Capa_1-2" data-name="Capa 1"><path class="cls-1" d="M11.94,0H150a0,0,0,0,1,0,0V150a0,0,0,0,1,0,0H11.94A11.94,11.94,0,0,1,0,138.06V11.94A11.94,11.94,0,0,1,11.94,0Z"/><path class="cls-2" d="M120.43,72.86A41.6,41.6,0,0,0,37.3,72.1c0,.6,0,1.21,0,1.81a40.93,40.93,0,0,0,6,21.32l-7.5,22.14,23-7.32a41.65,41.65,0,0,0,61.69-36.14C120.45,73.56,120.45,73.21,120.43,72.86ZM78.86,108.61a34.84,34.84,0,0,1-19.24-5.74l-13.44,4.28,4.36-12.89a34.36,34.36,0,0,1-6.66-20.35,31.42,31.42,0,0,1,.18-3.37,35,35,0,0,1,69.65.66c.08.9.12,1.79.12,2.71A34.88,34.88,0,0,1,78.86,108.61Z"/><path class="cls-2" d="M97.92,82.24c-1-.5-6-3-7-3.29s-1.62-.5-2.3.51-2.65,3.29-3.23,4-1.19.76-2.22.26a27.73,27.73,0,0,1-8.2-5,30.49,30.49,0,0,1-5.67-7c-.58-1-.06-1.56.45-2.06s1-1.19,1.54-1.78c.14-.17.25-.33.37-.48a11.1,11.1,0,0,0,.64-1.21,1.8,1.8,0,0,0-.08-1.77C72,63.84,70,58.86,69.1,56.83s-1.69-1.67-2.3-1.67-1.26-.1-2-.1a3.75,3.75,0,0,0-2.72,1.26,11.34,11.34,0,0,0-3.57,8.46,12.92,12.92,0,0,0,.53,3.44,22.73,22.73,0,0,0,3.64,7c.51.67,7.05,11.22,17.41,15.29S90.52,93.21,92.39,93s6-2.43,6.87-4.81.86-4.38.61-4.81S98.93,82.75,97.92,82.24Z"/></g></g></svg>